<svg width="194" height="54" viewBox="0 0 194 54" fill="none" xmlns="http://www.w3.org/2000/svg">
<g filter="url(#filter0_d_1498_850)">
<g clip-path="url(#clip0_1498_850)">
<rect width="37.0627" height="34.7182" rx="9" transform="matrix(0.988099 -0.153817 0.154915 0.987928 6 7.70093)" fill="white"/>
<rect width="37.0627" height="34.7182" rx="9" transform="matrix(0.988099 -0.153817 0.154915 0.987928 6 7.70093)" fill="white"/>
<path fill-rule="evenodd" clip-rule="evenodd" d="M15.4573 8.4715C11.6373 9.06615 9.02609 12.6444 9.625 16.4637L12.148 32.5532C12.7469 36.3726 16.3291 38.9867 20.1491 38.392L37.8103 35.6427C41.6302 35.048 44.2415 31.4698 43.6426 27.6505L41.1196 11.561C40.5207 7.74163 36.9385 5.12752 33.1185 5.72218L15.4573 8.4715ZM15.6934 16.6581C14.0563 16.913 12.9372 18.4465 13.1938 20.0834L15.2396 33.1298C15.4963 34.7666 17.0315 35.887 18.6687 35.6321L38.3752 32.5644C40.0123 32.3096 41.1314 30.776 40.8747 29.1392L38.829 16.0928C38.5723 14.4559 37.037 13.3356 35.3999 13.5904L15.6934 16.6581Z" fill="#F24C6A"/>
<rect width="3.70627" height="3.69343" transform="matrix(0.988099 -0.153817 0.154915 0.987928 28.4535 16.9146)" fill="#F24C6A"/>
<path d="M15.1211 3.66451C14.9631 2.65691 15.6548 1.71247 16.6661 1.55504C17.6774 1.39762 18.6253 2.08682 18.7833 3.09442L19.8132 9.66234C19.9712 10.6699 19.2795 11.6144 18.2682 11.7718C17.2569 11.9292 16.309 11.24 16.151 10.2324L15.1211 3.66451Z" fill="white"/>
<path d="M28.3049 1.61219C28.1469 0.60459 28.8386 -0.339849 29.8499 -0.497275C30.8612 -0.654701 31.809 0.0345018 31.967 1.0421L32.997 7.61002C33.155 8.61762 32.4632 9.56206 31.452 9.71948C30.4407 9.87691 29.4928 9.18771 29.3348 8.18011L28.3049 1.61219Z" fill="white"/>
<rect width="3.70627" height="3.69343" transform="matrix(0.988099 -0.153817 0.154915 0.987928 19.6643 18.2827)" fill="#F24C6A"/>
<path d="M34.3357 25.7173C36.3583 25.4025 37.7417 23.5136 37.4257 21.4984L33.7636 22.0685L34.3357 25.7173Z" fill="#F24C6A"/>
<path d="M20.4195 27.8837C18.397 28.1985 16.5012 26.8201 16.1852 24.8049L19.8473 24.2348L20.4195 27.8837Z" fill="#F24C6A"/>
<path d="M29.9411 26.4015L34.3357 25.7173L33.7636 22.0685L29.369 22.7526L29.9411 26.4015Z" fill="#F24C6A"/>
<path d="M24.8141 27.1996L29.9411 26.4015L29.369 22.7526L24.2419 23.5507L24.8141 27.1996Z" fill="#F24C6A"/>
<path d="M20.4195 27.8837L24.8141 27.1996L24.2419 23.5507L19.8473 24.2348L20.4195 27.8837Z" fill="#F24C6A"/>
</g>
</g>
<path d="M56 30.5407V13.0959H67.6627V16.173H59.3747V19.9043H66.1739V22.9813H59.3747V27.4637H67.6627V30.5407H56Z" fill="#F24C6A"/>
<path d="M72.7706 30.5407L67.907 17.4571H71.2817L74.458 26.5187L77.6342 17.4571H81.0089L76.1453 30.5407H72.7706Z" fill="#F24C6A"/>
<path d="M87.506 30.9042C86.133 30.9042 84.9212 30.6175 83.8707 30.0441C82.8285 29.4626 82.0097 28.667 81.4141 27.6575C80.8268 26.6399 80.5332 25.4769 80.5332 24.1685C80.5332 22.739 80.8227 21.4953 81.4017 20.4373C81.9807 19.3793 82.7789 18.5596 83.7963 17.9781C84.8137 17.3885 85.9841 17.0937 87.3075 17.0937C88.7137 17.0937 89.9089 17.4168 90.8932 18.0629C91.8775 18.709 92.6054 19.6176 93.0768 20.7886C93.5483 21.9597 93.7137 23.3367 93.5731 24.9196H90.2356V23.7082C90.2356 22.3756 90.0164 21.4186 89.578 20.8371C89.1479 20.2475 88.4407 19.9527 87.4564 19.9527C86.3067 19.9527 85.4588 20.296 84.9129 20.9824C84.3753 21.6609 84.1065 22.6664 84.1065 23.9989C84.1065 25.2185 84.3753 26.1634 84.9129 26.8337C85.4588 27.496 86.257 27.8271 87.3075 27.8271C87.9692 27.8271 88.5358 27.6858 89.0073 27.4031C89.4788 27.1204 89.8386 26.7126 90.0867 26.1795L93.4615 27.1245C92.9569 28.3198 92.1587 29.2485 91.0669 29.9108C89.9833 30.573 88.7964 30.9042 87.506 30.9042ZM83.0643 24.9196V22.4725H91.9478V24.9196H83.0643Z" fill="#F24C6A"/>
<path d="M103.654 30.5407V24.3624C103.654 24.0636 103.637 23.684 103.604 23.2236C103.571 22.7552 103.468 22.2868 103.294 21.8183C103.12 21.3499 102.835 20.9582 102.438 20.6432C102.049 20.3283 101.495 20.1708 100.775 20.1708C100.486 20.1708 100.176 20.2152 99.8449 20.304C99.5141 20.3929 99.2039 20.5665 98.9144 20.825C98.6249 21.0753 98.385 21.4468 98.1948 21.9395C98.0128 22.4321 97.9218 23.0863 97.9218 23.902L95.9863 23.0056C95.9863 21.9718 96.2014 21.0026 96.6315 20.0981C97.0616 19.1935 97.7068 18.4626 98.567 17.9054C99.4355 17.3481 100.527 17.0695 101.842 17.0695C102.893 17.0695 103.749 17.2431 104.411 17.5904C105.072 17.9377 105.585 18.3778 105.949 18.9109C106.321 19.4439 106.586 20.0012 106.743 20.5827C106.9 21.1561 106.996 21.681 107.029 22.1575C107.062 22.6341 107.078 22.9813 107.078 23.1994V30.5407H103.654ZM94.4975 30.5407V17.4571H97.5V21.7941H97.9218V30.5407H94.4975Z" fill="#F24C6A"/>
<path d="M116.849 30.5407C115.922 30.7103 115.012 30.783 114.119 30.7588C113.234 30.7426 112.44 30.5932 111.737 30.3106C111.042 30.0198 110.513 29.5554 110.149 28.9174C109.818 28.3198 109.644 27.714 109.628 27.1002C109.611 26.4784 109.603 25.7757 109.603 24.9923V13.8228H112.978V24.7985C112.978 25.3073 112.982 25.7677 112.99 26.1795C113.007 26.5834 113.094 26.9064 113.251 27.1487C113.548 27.609 114.024 27.8594 114.677 27.8998C115.331 27.9402 116.055 27.9079 116.849 27.8029V30.5407ZM107.32 20.0012V17.4571H116.849V20.0012H107.32Z" fill="#F24C6A"/>
<path d="M134.475 30.5407V22.8117C134.475 21.9476 134.264 21.2772 133.842 20.8007C133.429 20.3162 132.854 20.0739 132.118 20.0739C131.646 20.0739 131.237 20.1829 130.89 20.401C130.542 20.6109 130.269 20.9098 130.071 21.2974C129.88 21.677 129.785 22.1172 129.785 22.6179L128.371 21.6972C128.371 20.8007 128.586 20.0093 129.016 19.3228C129.454 18.6363 130.038 18.1032 130.765 17.7237C131.502 17.336 132.316 17.1422 133.21 17.1422C134.74 17.1422 135.894 17.5864 136.671 18.4748C137.457 19.3551 137.85 20.51 137.85 21.9395V30.5407H134.475ZM118.321 30.5407V17.4571H121.299V21.7941H121.721V30.5407H118.321ZM126.411 30.5407V22.8117C126.411 21.9476 126.2 21.2772 125.778 20.8007C125.364 20.3162 124.789 20.0739 124.053 20.0739C123.35 20.0739 122.784 20.3121 122.353 20.7886C121.932 21.257 121.721 21.8668 121.721 22.6179L120.306 21.6487C120.306 20.7927 120.525 20.0254 120.964 19.347C121.402 18.6686 121.99 18.1315 122.726 17.7358C123.47 17.34 124.301 17.1422 125.219 17.1422C126.27 17.1422 127.13 17.3602 127.8 17.7964C128.478 18.2325 128.979 18.814 129.301 19.5408C129.624 20.2677 129.785 21.0672 129.785 21.9395V30.5407H126.411Z" fill="#F24C6A"/>
<path d="M143.31 30.9042C142.35 30.9042 141.535 30.7265 140.865 30.3711C140.204 30.0077 139.699 29.5272 139.352 28.9295C139.012 28.3238 138.843 27.6575 138.843 26.9306C138.843 26.3249 138.938 25.7717 139.128 25.271C139.319 24.7702 139.625 24.3301 140.046 23.9505C140.477 23.5628 141.051 23.2398 141.771 22.9813C142.267 22.8037 142.859 22.6462 143.545 22.5089C144.232 22.3716 145.009 22.2424 145.878 22.1212C146.746 21.992 147.702 21.8506 148.744 21.6972L147.528 22.3514C147.528 21.5761 147.338 21.0067 146.957 20.6432C146.577 20.2798 145.94 20.0981 145.047 20.0981C144.55 20.0981 144.033 20.2152 143.496 20.4494C142.958 20.6836 142.582 21.0996 142.367 21.6972L139.314 20.7523C139.654 19.6701 140.29 18.7897 141.225 18.1113C142.16 17.4329 143.434 17.0937 145.047 17.0937C146.229 17.0937 147.28 17.2714 148.198 17.6267C149.116 17.9821 149.811 18.5959 150.282 19.4681C150.547 19.9527 150.704 20.4373 150.754 20.9219C150.803 21.4065 150.828 21.9476 150.828 22.5452V30.5407H147.875V27.8513L148.297 28.4086C147.644 29.2889 146.937 29.9269 146.176 30.3227C145.423 30.7103 144.468 30.9042 143.31 30.9042ZM144.029 28.3117C144.649 28.3117 145.171 28.2067 145.592 27.9967C146.023 27.7787 146.362 27.5323 146.61 27.2577C146.866 26.9831 147.04 26.753 147.131 26.5672C147.305 26.2118 147.404 25.8 147.429 25.3315C147.462 24.855 147.478 24.4593 147.478 24.1443L148.471 24.3866C147.47 24.5481 146.659 24.6854 146.039 24.7985C145.419 24.9035 144.918 25.0004 144.538 25.0892C144.157 25.1781 143.822 25.275 143.533 25.38C143.202 25.5092 142.933 25.6505 142.726 25.804C142.528 25.9494 142.379 26.1109 142.28 26.2886C142.189 26.4663 142.143 26.6641 142.143 26.8822C142.143 27.181 142.218 27.4394 142.367 27.6575C142.524 27.8675 142.743 28.029 143.024 28.1421C143.305 28.2552 143.64 28.3117 144.029 28.3117Z" fill="#F24C6A"/>
<path d="M152.541 30.5407L152.565 13.0959H155.99V23.7567L160.531 17.4571H164.7L159.861 23.9989L165.022 30.5407H160.63L155.99 24.2412V30.5407H152.541Z" fill="#F24C6A"/>
<path d="M170.754 30.9042C169.381 30.9042 168.169 30.6175 167.119 30.0441C166.077 29.4626 165.258 28.667 164.662 27.6575C164.075 26.6399 163.781 25.4769 163.781 24.1685C163.781 22.739 164.071 21.4953 164.65 20.4373C165.229 19.3793 166.027 18.5596 167.044 17.9781C168.062 17.3885 169.232 17.0937 170.556 17.0937C171.962 17.0937 173.157 17.4168 174.141 18.0629C175.126 18.709 175.853 19.6176 176.325 20.7886C176.796 21.9597 176.962 23.3367 176.821 24.9196H173.484V23.7082C173.484 22.3756 173.265 21.4186 172.826 20.8371C172.396 20.2475 171.689 19.9527 170.705 19.9527C169.555 19.9527 168.707 20.296 168.161 20.9824C167.623 21.6609 167.355 22.6664 167.355 23.9989C167.355 25.2185 167.623 26.1634 168.161 26.8337C168.707 27.496 169.505 27.8271 170.556 27.8271C171.217 27.8271 171.784 27.6858 172.255 27.4031C172.727 27.1204 173.087 26.7126 173.335 26.1795L176.71 27.1245C176.205 28.3198 175.407 29.2485 174.315 29.9108C173.231 30.573 172.044 30.9042 170.754 30.9042ZM166.312 24.9196V22.4725H175.196V24.9196H166.312Z" fill="#F24C6A"/>
<path d="M178.134 30.5407V17.4571H181.112V20.6554L180.789 20.2435C180.963 19.7912 181.194 19.3793 181.484 19.0078C181.773 18.6363 182.129 18.3294 182.551 18.0871C182.873 17.8933 183.225 17.7439 183.605 17.6389C183.986 17.5258 184.379 17.4571 184.784 17.4329C185.189 17.4006 185.595 17.4087 186 17.4571V20.5342C185.628 20.4211 185.194 20.3848 184.697 20.4252C184.209 20.4575 183.767 20.5665 183.37 20.7523C182.973 20.93 182.638 21.1682 182.365 21.467C182.092 21.7578 181.885 22.1051 181.744 22.5089C181.604 22.9046 181.533 23.3528 181.533 23.8536V30.5407H178.134Z" fill="#F24C6A"/>
<defs>
<filter id="filter0_d_1498_850" x="-1.1" y="0.9" width="56.2" height="54.2" filterUnits="userSpaceOnUse" color-interpolation-filters="sRGB">
<feFlood flood-opacity="0" result="BackgroundImageFix"/>
<feColorMatrix in="SourceAlpha" type="matrix" values="0 0 0 0 0 0 0 0 0 0 0 0 0 0 0 0 0 0 127 0" result="hardAlpha"/>
<feMorphology radius="3" operator="erode" in="SourceAlpha" result="effect1_dropShadow_1498_850"/>
<feOffset dy="6"/>
<feGaussianBlur stdDeviation="5.05"/>
<feComposite in2="hardAlpha" operator="out"/>
<feColorMatrix type="matrix" values="0 0 0 0 0 0 0 0 0 0 0 0 0 0 0 0 0 0 0.09 0"/>
<feBlend mode="normal" in2="BackgroundImageFix" result="effect1_dropShadow_1498_850"/>
<feBlend mode="normal" in="SourceGraphic" in2="effect1_dropShadow_1498_850" result="shape"/>
</filter>
<clipPath id="clip0_1498_850">
<rect width="37.0627" height="34.7182" rx="9" transform="matrix(0.988099 -0.153817 0.154915 0.987928 6 7.70093)" fill="white"/>
</clipPath>
</defs>
</svg>
