<svg width="2585" height="307" viewBox="0 0 2585 307" fill="none" xmlns="http://www.w3.org/2000/svg">
<path d="M0 0C0 0 2726.34 0 2579 0C2431.66 0 2169.84 307 1898 307C1626.16 307 1466.34 127.675 1300.21 226.132C1138.21 322.139 1030.18 264.351 730.842 199.176C431.5 134 0 0 0 0Z" fill="url(#paint0_radial_1509_1381)" fill-opacity="0.5"/>
<path d="M0 0C0 0 2726.34 0 2579 0C2431.66 0 2169.84 307 1898 307C1626.16 307 1466.34 127.675 1300.21 226.132C1138.21 322.139 1030.18 264.351 730.842 199.176C431.5 134 0 0 0 0Z" fill="url(#paint1_radial_1509_1381)" fill-opacity="0.5"/>
<path d="M0 0C0 0 2726.34 0 2579 0C2431.66 0 2169.84 307 1898 307C1626.16 307 1466.34 127.675 1300.21 226.132C1138.21 322.139 1030.18 264.351 730.842 199.176C431.5 134 0 0 0 0Z" fill="url(#paint2_radial_1509_1381)" fill-opacity="0.4"/>
<defs>
<radialGradient id="paint0_radial_1509_1381" cx="0" cy="0" r="1" gradientUnits="userSpaceOnUse" gradientTransform="translate(1186.21 100.646) rotate(60.6595) scale(375.082 1765.23)">
<stop stop-color="#FF7979"/>
<stop offset="1" stop-color="#F3B8B8" stop-opacity="0"/>
</radialGradient>
<radialGradient id="paint1_radial_1509_1381" cx="0" cy="0" r="1" gradientUnits="userSpaceOnUse" gradientTransform="translate(1641.89 158.551) rotate(110.613) scale(265.065 485.68)">
<stop stop-color="#B50FEF"/>
<stop offset="1" stop-color="#B72FE7" stop-opacity="0"/>
</radialGradient>
<radialGradient id="paint2_radial_1509_1381" cx="0" cy="0" r="1" gradientUnits="userSpaceOnUse" gradientTransform="translate(846.579 193.994) rotate(-18.3144) scale(216.049 1089.2)">
<stop stop-color="#F7C100"/>
<stop offset="1" stop-color="#F7C100" stop-opacity="0"/>
</radialGradient>
</defs>
</svg>
